<?xml version="1.0" standalone="no"?>
<!DOCTYPE svg PUBLIC "-//W3C//DTD SVG 20010904//EN"
 "http://www.w3.org/TR/2001/REC-SVG-20010904/DTD/svg10.dtd">
<svg version="1.0" xmlns="http://www.w3.org/2000/svg"
 width="1500.000000pt" height="1500.000000pt" viewBox="0 0 1500.000000 1500.000000"
 preserveAspectRatio="xMidYMid meet">
<metadata>
Created by potrace 1.14, written by Peter Selinger 2001-2017
</metadata>
<g transform="translate(0.000000,1500.000000) scale(0.100000,-0.100000)"
fill="#000000" stroke="none">
<path d="M7044 14973 c3 -6 2 -14 -4 -18 -5 -3 -10 -1 -10 5 0 8 -6 8 -20 0
-14 -8 -20 -8 -20 0 0 6 -5 8 -10 5 -18 -11 -110 -14 -110 -3 0 5 -7 2 -16 -6
-8 -9 -20 -14 -25 -11 -5 3 -25 2 -44 -4 -22 -6 -37 -6 -41 0 -3 6 -11 6 -17
2 -7 -5 -24 -8 -39 -7 -16 0 -28 -3 -28 -9 0 -5 -6 -4 -14 2 -11 9 -16 9 -22
0 -5 -8 -3 -9 6 -4 9 5 11 4 6 -4 -5 -7 -12 -9 -19 -3 -10 7 -72 9 -72 3 0 -2
-8 -4 -17 -6 -10 -2 -18 2 -18 8 0 8 -4 7 -9 -2 -5 -8 -29 -15 -58 -16 -28 -1
-55 -5 -60 -8 -6 -4 -31 -8 -57 -9 -25 -2 -46 -7 -46 -11 0 -4 -9 -3 -19 3
-15 7 -22 7 -28 -2 -4 -7 -24 -14 -43 -15 -19 -1 -51 -5 -70 -8 -19 -4 -39 -8
-45 -9 -5 -1 -15 -5 -22 -9 -6 -4 -14 -1 -16 5 -4 10 -6 10 -6 0 -1 -7 -5 -10
-11 -7 -5 3 -10 2 -10 -3 0 -5 -14 -6 -31 -4 -25 4 -30 2 -24 -9 7 -11 6 -12
-6 -2 -9 8 -19 9 -25 3 -5 -5 -22 -11 -39 -14 -16 -2 -30 -5 -30 -6 0 -1 -13
-4 -29 -6 -16 -2 -42 -8 -57 -14 -15 -7 -35 -10 -45 -9 -11 2 -29 -3 -42 -9
-12 -7 -27 -10 -32 -7 -6 3 -10 2 -10 -2 0 -5 -8 -9 -17 -10 -19 -1 -58 -10
-58 -13 0 -2 -20 -7 -59 -15 -16 -3 -38 -11 -48 -16 -11 -6 -22 -8 -25 -6 -2
3 -19 -1 -38 -8 -18 -8 -35 -11 -39 -8 -3 4 -6 1 -6 -5 0 -7 -3 -11 -7 -11
-23 4 -53 -2 -49 -9 3 -5 -10 -8 -29 -7 -19 1 -32 -1 -30 -5 4 -7 -51 -24 -67
-21 -5 0 -8 -3 -8 -9 0 -5 -7 -7 -15 -4 -8 4 -15 2 -15 -3 0 -5 -8 -10 -17
-11 -22 -2 -58 -10 -58 -12 0 -1 -7 -3 -16 -5 -8 -1 -34 -12 -57 -23 -23 -11
-39 -15 -35 -9 3 7 -4 3 -16 -8 -13 -11 -24 -19 -25 -17 -3 8 -56 -11 -56 -20
0 -6 -7 -8 -15 -4 -8 3 -20 -1 -27 -8 -7 -7 -19 -11 -26 -8 -6 2 -12 -1 -12
-6 0 -6 -11 -9 -25 -8 -13 2 -22 0 -20 -5 3 -4 -8 -10 -25 -14 -16 -4 -30 -12
-30 -18 0 -7 -4 -6 -10 3 -5 8 -10 10 -10 5 0 -6 -9 -16 -21 -23 -14 -9 -19
-10 -14 -2 4 7 -4 5 -17 -4 -14 -9 -28 -13 -31 -10 -4 4 -9 0 -13 -9 -3 -9
-12 -13 -21 -10 -12 5 -14 3 -8 -7 6 -9 4 -11 -4 -5 -8 4 -25 -2 -43 -15 -17
-13 -28 -18 -24 -12 4 6 -3 6 -19 -1 -14 -7 -25 -15 -25 -19 0 -5 -11 -8 -25
-8 -14 0 -25 -5 -25 -11 0 -6 -6 -9 -14 -6 -8 3 -17 -1 -20 -9 -3 -8 -9 -13
-13 -12 -4 1 -18 -3 -29 -10 -12 -6 -24 -8 -28 -5 -3 3 -6 1 -6 -6 0 -7 -4 -9
-10 -6 -5 3 -10 2 -10 -3 0 -9 -37 -25 -52 -23 -5 1 -8 -3 -8 -8 0 -5 -11 -12
-25 -15 -16 -4 -23 -11 -19 -18 4 -6 3 -8 -4 -4 -10 6 -60 -11 -72 -24 -13
-15 -89 -48 -96 -42 -4 4 -4 2 -1 -4 4 -7 -10 -16 -33 -24 -22 -7 -37 -17 -34
-21 3 -5 -4 -9 -15 -9 -11 0 -26 -6 -33 -13 -7 -7 -35 -23 -62 -37 -26 -14
-50 -30 -53 -36 -2 -7 -14 -9 -25 -6 -14 3 -19 1 -14 -6 6 -10 -8 -18 -17 -9
-2 2 -21 -12 -56 -44 -9 -8 -23 -13 -29 -11 -7 2 -12 -1 -12 -7 0 -6 -7 -11
-15 -11 -8 0 -15 -4 -15 -10 0 -5 -7 -10 -15 -10 -8 0 -15 -4 -15 -10 0 -5 -5
-10 -10 -10 -11 0 -87 -47 -108 -68 -8 -7 -18 -10 -23 -7 -5 4 -9 2 -9 -4 0
-5 -18 -21 -40 -34 -22 -13 -37 -27 -33 -31 5 -4 4 -7 -2 -6 -20 4 -48 0 -42
-6 3 -4 0 -13 -8 -20 -17 -17 -28 -18 -20 -1 4 6 -3 1 -14 -13 -11 -14 -21
-22 -21 -17 0 4 -8 0 -17 -8 -57 -50 -77 -65 -83 -65 -3 0 -15 -8 -26 -17 -34
-31 -83 -63 -94 -63 -6 0 -8 -4 -5 -10 3 -5 2 -10 -2 -10 -10 0 -44 -25 -74
-52 -11 -10 -23 -18 -29 -18 -5 0 -14 -9 -20 -20 -6 -11 -16 -20 -22 -20 -6 0
-19 -10 -29 -22 -11 -11 -19 -18 -19 -15 0 4 -9 -1 -19 -10 -10 -10 -35 -31
-55 -48 -20 -16 -54 -47 -76 -68 -22 -21 -40 -35 -40 -31 0 4 -13 -7 -28 -24
-16 -18 -32 -32 -36 -32 -12 0 -35 -27 -29 -34 4 -3 0 -6 -7 -6 -7 0 -28 -16
-47 -35 -19 -19 -39 -35 -44 -35 -6 0 -8 -4 -5 -8 2 -4 -11 -18 -30 -31 -18
-13 -31 -27 -28 -32 3 -5 0 -9 -6 -9 -6 0 -35 -25 -65 -55 -29 -30 -59 -55
-66 -55 -7 0 -10 -3 -6 -6 3 -4 -13 -24 -36 -46 -23 -22 -41 -44 -40 -49 2 -5
-1 -9 -6 -9 -15 0 -61 -46 -61 -60 0 -7 -3 -11 -6 -8 -7 8 -38 -23 -47 -46 -4
-10 -12 -14 -18 -10 -7 4 -9 3 -6 -3 3 -5 -7 -20 -24 -33 -16 -14 -29 -29 -29
-33 0 -5 -18 -26 -41 -48 -22 -21 -38 -39 -36 -39 5 0 -51 -65 -96 -111 -15
-16 -27 -32 -27 -37 0 -5 -10 -18 -23 -30 -27 -26 -47 -49 -47 -57 0 -3 -14
-19 -30 -35 -17 -17 -28 -30 -25 -30 6 0 -7 -18 -42 -56 -13 -14 -23 -32 -23
-41 0 -9 -3 -13 -6 -10 -7 6 -66 -69 -62 -78 2 -2 -6 -11 -17 -19 -11 -9 -16
-16 -12 -16 4 0 -5 -12 -20 -27 -16 -16 -30 -32 -31 -38 -2 -5 -11 -21 -22
-35 -11 -14 -20 -29 -21 -35 -1 -5 -9 -15 -18 -22 -9 -7 -12 -13 -6 -13 5 0
-1 -7 -13 -16 -12 -8 -20 -19 -17 -24 3 -5 -1 -12 -8 -17 -16 -9 -42 -54 -39
-65 1 -5 -3 -8 -8 -8 -6 0 -18 -16 -27 -35 -9 -19 -21 -31 -26 -28 -6 3 -7 2
-4 -4 4 -5 -2 -19 -11 -29 -10 -10 -20 -23 -21 -29 -10 -31 -16 -41 -28 -48
-7 -5 -11 -12 -8 -18 4 -5 1 -9 -4 -9 -6 0 -11 -7 -11 -15 0 -8 -4 -15 -9 -15
-5 0 -12 -11 -15 -25 -4 -16 -11 -23 -18 -19 -6 4 -8 3 -5 -3 4 -6 -1 -21 -11
-34 -20 -26 -36 -60 -34 -71 1 -5 -5 -8 -14 -8 -9 0 -12 -5 -8 -12 4 -6 0 -16
-8 -22 -15 -11 -18 -17 -18 -35 0 -5 -8 -17 -17 -26 -9 -10 -17 -25 -18 -36
-1 -10 -10 -28 -21 -40 -10 -11 -18 -24 -18 -28 1 -3 -3 -4 -10 -3 -6 2 -8 0
-4 -3 4 -4 -3 -26 -14 -49 -12 -22 -21 -44 -20 -48 1 -5 -3 -8 -9 -8 -6 0 -9
-6 -6 -14 3 -8 -1 -17 -9 -20 -9 -3 -12 -10 -9 -16 3 -5 1 -10 -6 -10 -7 0 -9
-3 -6 -7 4 -3 0 -14 -9 -24 -14 -15 -21 -34 -23 -62 -1 -5 -6 -5 -13 -1 -6 4
-8 3 -5 -3 3 -5 0 -21 -8 -36 -8 -15 -12 -27 -9 -27 3 0 -2 -7 -11 -16 -9 -9
-14 -23 -11 -30 3 -8 2 -14 -3 -14 -8 0 -55 -104 -52 -116 2 -4 -1 -10 -6 -13
-16 -11 -54 -111 -47 -123 4 -7 3 -8 -4 -4 -7 4 -12 2 -12 -4 0 -10 -31 -86
-51 -122 -5 -10 -9 -27 -9 -38 0 -11 -5 -20 -10 -20 -6 0 -9 -3 -9 -7 4 -22
-2 -43 -10 -39 -5 4 -8 -2 -6 -11 1 -10 -3 -24 -9 -32 -6 -8 -10 -15 -8 -15 2
-1 -2 -14 -8 -30 -6 -16 -12 -38 -14 -50 -2 -11 -9 -20 -15 -19 -5 2 -8 -4 -5
-11 3 -8 -2 -28 -11 -45 -12 -23 -12 -31 -3 -31 10 0 10 -2 0 -9 -7 -4 -15
-14 -16 -22 -2 -8 -7 -22 -11 -32 -4 -10 -8 -28 -9 -40 -1 -12 -6 -21 -12 -20
-5 1 -9 -14 -9 -32 1 -20 -2 -32 -8 -28 -6 4 -8 0 -4 -10 3 -9 2 -19 -4 -22
-5 -4 -7 -10 -4 -15 3 -5 1 -11 -5 -15 -5 -3 -10 -16 -10 -29 0 -12 -3 -26 -7
-30 -8 -8 -13 -31 -15 -63 0 -13 -5 -23 -10 -23 -6 0 -8 -11 -6 -25 3 -13 1
-26 -4 -27 -5 -2 -11 -17 -13 -33 -2 -17 -4 -31 -6 -32 -1 -2 -3 -7 -4 -13 -1
-5 -3 -11 -5 -12 -1 -2 -4 -19 -7 -38 -2 -19 -8 -37 -11 -40 -4 -3 -7 -16 -7
-30 0 -14 -4 -28 -8 -31 -4 -3 -9 -22 -10 -42 -1 -21 -4 -37 -7 -37 -3 0 -6
-15 -7 -32 -2 -18 -7 -34 -13 -36 -7 -3 -7 -8 1 -18 9 -11 8 -14 -1 -14 -8 0
-10 -3 -7 -7 4 -3 2 -12 -4 -20 -9 -10 -8 -13 1 -13 9 0 10 -3 1 -13 -6 -8 -8
-17 -4 -20 3 -4 2 -7 -4 -7 -6 0 -9 -16 -7 -35 1 -19 -2 -35 -8 -35 -5 0 -6
-9 -3 -20 4 -13 2 -20 -7 -20 -10 0 -9 -3 2 -10 12 -8 12 -10 1 -10 -9 0 -12
-10 -9 -34 2 -20 0 -32 -6 -29 -5 4 -7 -3 -4 -15 4 -12 3 -22 -2 -22 -4 0 -6
-13 -5 -30 1 -16 -1 -30 -6 -30 -5 0 -4 -12 1 -26 7 -16 7 -23 0 -19 -6 3 -11
-4 -11 -17 -1 -13 -2 -39 -3 -58 -1 -19 -5 -40 -8 -46 -4 -5 -8 -32 -9 -60 -1
-27 -7 -52 -13 -56 -8 -6 -7 -11 3 -17 10 -6 10 -10 1 -16 -9 -6 -9 -10 1 -16
12 -7 12 -9 0 -9 -7 0 -11 -6 -7 -15 3 -8 2 -15 -2 -15 -4 0 -7 -24 -6 -53 0
-28 -3 -60 -8 -69 -6 -12 -5 -18 2 -18 7 0 8 -5 3 -12 -12 -20 -13 -50 -18
-551 -4 -371 -2 -467 8 -461 9 6 9 4 1 -7 -5 -8 -9 -30 -8 -49 1 -19 3 -66 5
-105 1 -38 7 -76 13 -84 8 -11 8 -13 -1 -7 -7 4 -13 2 -13 -3 0 -6 5 -11 10
-11 6 0 10 -5 10 -11 0 -5 -4 -8 -8 -5 -5 3 -9 -1 -9 -9 0 -8 4 -12 8 -9 4 2
8 -22 9 -53 1 -75 4 -95 15 -112 6 -10 4 -12 -5 -6 -10 6 -11 4 -4 -6 5 -8 10
-32 10 -54 4 -82 3 -81 15 -65 9 13 10 12 5 -2 -3 -10 -9 -25 -12 -33 -3 -8
-1 -15 5 -15 6 0 11 -17 11 -37 0 -38 5 -88 10 -88 1 0 3 -11 5 -25 1 -14 6
-43 10 -65 4 -22 8 -53 8 -70 1 -16 5 -33 10 -36 6 -5 15 -57 20 -121 1 -10 5
-18 10 -18 5 0 4 -6 -2 -14 -7 -9 -8 -15 -2 -18 5 -1 12 -16 15 -33 2 -16 5
-30 6 -30 1 0 3 -10 6 -22 2 -13 6 -33 8 -45 3 -13 5 -23 6 -23 1 0 3 -11 5
-25 6 -32 13 -65 15 -65 3 0 11 -39 13 -60 1 -11 5 -22 9 -25 4 -3 8 -22 10
-42 1 -20 6 -34 10 -32 4 3 8 -11 8 -31 0 -20 3 -34 8 -32 4 3 8 -13 10 -36 1
-22 6 -46 10 -51 15 -21 33 -86 27 -96 -3 -5 -1 -10 5 -10 6 0 8 -4 5 -10 -3
-5 -1 -10 4 -10 6 0 10 -3 10 -7 -4 -27 2 -53 12 -47 7 4 9 0 5 -14 -4 -12 -1
-26 9 -36 10 -10 12 -16 5 -16 -8 0 -7 -9 5 -26 9 -14 14 -32 11 -39 -3 -8 -1
-15 4 -17 5 -2 11 -13 13 -25 1 -11 9 -29 17 -39 10 -12 10 -15 2 -10 -7 4 -5
-6 6 -26 10 -18 18 -43 17 -55 -1 -12 2 -20 7 -17 4 3 8 2 9 -3 2 -27 9 -47
24 -70 9 -14 12 -23 6 -19 -5 4 -4 -6 4 -20 8 -15 11 -32 8 -37 -3 -6 -1 -7 5
-3 8 5 12 -2 12 -18 0 -14 4 -26 9 -26 5 0 11 -14 15 -32 3 -17 14 -41 24 -52
9 -10 11 -16 4 -12 -6 4 -3 -9 9 -28 11 -19 18 -40 14 -46 -3 -5 -2 -10 3 -10
5 0 20 -27 32 -60 12 -33 27 -60 33 -60 6 0 8 -3 4 -6 -3 -4 0 -19 9 -35 8
-16 12 -29 9 -29 -4 0 1 -7 9 -16 9 -8 14 -20 11 -25 -4 -5 -1 -9 4 -9 6 0 11
-9 11 -20 0 -11 4 -20 9 -20 8 0 24 -37 22 -52 -1 -5 4 -8 10 -8 6 0 9 -6 6
-14 -3 -8 1 -17 10 -20 8 -4 13 -13 9 -21 -3 -8 -1 -15 4 -15 5 0 14 -16 21
-35 7 -19 17 -35 21 -35 4 0 8 -7 8 -16 0 -8 4 -12 10 -9 5 3 7 0 4 -8 -3 -8
1 -21 9 -28 7 -8 12 -20 9 -27 -2 -6 3 -12 11 -12 10 0 13 -7 10 -20 -4 -14
-1 -20 8 -18 9 2 13 -4 11 -15 -2 -9 1 -17 5 -17 5 0 17 -20 28 -45 11 -25 23
-45 28 -45 4 0 7 -6 7 -14 0 -7 7 -19 15 -26 8 -7 12 -16 9 -21 -3 -5 0 -9 5
-9 6 0 11 -7 11 -15 0 -8 5 -15 10 -15 6 0 10 -9 10 -19 0 -10 7 -22 16 -25 8
-3 12 -10 9 -16 -3 -5 -1 -10 4 -10 6 0 11 -7 11 -16 0 -9 5 -12 12 -8 7 4 8
3 4 -5 -4 -6 6 -29 25 -52 17 -22 29 -42 26 -45 -3 -3 2 -14 11 -24 29 -32 55
-70 75 -110 12 -25 30 -50 54 -75 7 -8 13 -18 13 -24 0 -6 5 -11 11 -11 5 0 8
-4 5 -9 -3 -5 1 -11 9 -15 8 -3 15 -12 15 -21 0 -8 5 -15 10 -15 6 0 10 -5 10
-11 0 -7 10 -20 22 -30 11 -11 18 -19 14 -19 -4 0 6 -17 23 -39 17 -21 27 -42
23 -47 -4 -5 -3 -6 2 -2 9 8 56 -43 56 -61 0 -6 5 -11 10 -11 6 0 10 -7 10
-16 0 -8 4 -13 8 -10 4 2 14 -9 21 -25 7 -16 17 -27 22 -23 5 3 9 -1 9 -8 0
-7 11 -26 24 -43 53 -65 72 -88 98 -116 15 -16 25 -29 22 -29 -3 0 1 -6 8 -14
7 -8 16 -12 21 -9 4 2 7 1 6 -4 -4 -21 3 -32 22 -38 11 -4 18 -9 15 -12 -3 -3
4 -14 15 -24 12 -10 18 -23 14 -29 -3 -6 -3 -10 2 -8 9 2 83 -67 83 -77 0 -4
11 -16 25 -27 14 -11 25 -27 25 -35 0 -9 3 -14 6 -10 8 7 34 -17 34 -32 0 -6
7 -11 15 -11 8 0 15 -5 15 -11 0 -6 23 -33 50 -60 28 -27 50 -53 50 -59 0 -5
3 -9 7 -8 5 2 60 -49 124 -112 64 -63 125 -121 135 -128 10 -7 13 -10 5 -6 -9
5 -12 3 -7 -4 4 -7 13 -12 19 -12 7 0 28 -17 48 -38 53 -54 109 -103 109 -94
1 4 7 -4 15 -18 8 -14 14 -22 15 -17 0 4 14 -6 31 -23 18 -16 36 -30 41 -30 5
0 6 -4 3 -10 -3 -5 0 -10 7 -10 12 0 40 -21 105 -80 13 -11 38 -31 57 -44 20
-13 32 -26 29 -30 -4 -3 0 -6 8 -6 9 0 25 -9 37 -20 12 -11 26 -20 32 -20 6 0
8 -4 5 -10 -3 -5 -1 -10 5 -10 6 0 16 -5 23 -10 47 -39 62 -50 78 -55 11 -4
19 -13 19 -21 0 -8 3 -13 8 -13 19 3 33 -2 27 -11 -3 -6 1 -10 9 -10 9 0 16
-5 16 -12 0 -6 3 -9 6 -5 3 3 11 1 18 -4 56 -47 73 -59 84 -59 6 0 12 -4 12
-10 0 -5 7 -10 15 -10 9 0 18 -7 21 -15 4 -8 10 -12 15 -9 5 3 9 0 9 -6 0 -6
5 -8 10 -5 6 3 10 -1 10 -10 0 -9 4 -14 8 -11 5 3 21 -7 37 -22 16 -15 30 -26
30 -24 0 8 42 -14 56 -30 9 -10 19 -15 23 -11 3 3 6 1 6 -6 0 -7 5 -9 10 -6 5
3 10 1 10 -4 0 -6 7 -11 14 -11 8 0 27 -11 42 -25 15 -14 36 -25 46 -25 11 0
16 -5 13 -10 -3 -6 3 -10 15 -10 12 0 18 -4 15 -10 -3 -5 1 -10 10 -10 9 0 28
-9 42 -20 14 -11 32 -20 39 -20 8 0 14 -4 14 -10 0 -5 6 -10 13 -10 7 0 23 -9
35 -20 12 -12 22 -18 22 -16 0 5 12 -1 119 -60 24 -13 50 -24 58 -24 7 0 16
-7 19 -15 4 -8 10 -12 15 -9 5 3 9 0 9 -6 0 -6 4 -8 10 -5 5 3 10 1 10 -5 0
-7 7 -10 15 -6 8 3 15 1 15 -4 0 -6 7 -10 15 -10 8 0 15 -5 15 -11 0 -6 7 -8
15 -5 9 3 18 -1 21 -9 4 -8 15 -15 25 -15 10 0 19 -4 19 -10 0 -5 9 -10 21
-10 13 0 18 -4 13 -12 -4 -6 -3 -8 4 -4 12 7 62 -13 62 -26 0 -4 5 -8 11 -8 5
0 7 6 3 12 -4 7 4 3 18 -10 13 -12 28 -19 31 -15 4 3 7 1 7 -6 0 -7 4 -10 9
-6 5 3 13 0 16 -6 4 -5 14 -8 22 -5 8 3 11 1 8 -4 -5 -9 18 -15 29 -7 2 1 12
-6 22 -15 11 -9 31 -20 47 -23 15 -4 30 -11 33 -16 3 -5 16 -9 30 -9 14 0 22
-4 19 -10 -4 -6 5 -10 19 -10 14 0 26 -5 26 -11 0 -5 4 -8 9 -4 5 3 12 1 16
-5 4 -6 10 -8 15 -5 5 3 11 1 15 -5 3 -5 15 -10 26 -10 10 0 19 -5 19 -12 0
-6 3 -8 7 -5 3 4 13 1 21 -6 13 -10 14 -9 8 2 -9 15 44 -17 56 -34 5 -6 8 -4
8 5 0 13 1 13 10 0 5 -8 10 -11 10 -6 0 5 6 3 14 -3 8 -6 27 -13 44 -14 16 -1
28 -5 26 -8 -2 -4 8 -10 24 -15 15 -4 29 -8 32 -9 3 -1 20 -6 38 -10 18 -4 35
-12 38 -16 3 -5 10 -7 15 -4 5 4 9 2 9 -4 0 -6 7 -8 15 -5 8 4 15 1 15 -6 0
-6 5 -8 10 -5 6 4 17 1 25 -5 8 -7 15 -10 15 -6 0 4 12 0 28 -7 15 -8 37 -13
49 -12 12 1 20 -2 17 -7 -3 -4 9 -8 26 -8 22 0 29 -4 24 -13 -4 -6 -4 -9 1 -5
4 4 15 2 23 -5 13 -10 14 -9 7 3 -7 12 -6 13 6 4 8 -6 22 -10 32 -9 9 2 15 -1
11 -6 -3 -5 11 -9 30 -9 20 0 36 -5 36 -11 0 -5 8 -9 18 -8 29 2 43 -1 39 -8
-3 -5 13 -9 35 -10 23 0 43 -5 47 -10 3 -5 20 -9 38 -8 17 0 30 -2 27 -6 -2
-4 18 -10 44 -14 26 -4 53 -12 61 -18 12 -10 13 -9 6 3 -8 13 -7 13 10 0 10
-8 20 -14 22 -12 1 1 4 1 6 1 1 -1 16 -3 32 -4 17 -2 30 -4 30 -5 0 -3 40 -12
70 -14 17 -2 37 -6 45 -9 8 -4 29 -8 45 -10 17 -2 36 -7 43 -11 7 -4 12 -4 12
1 0 4 5 1 10 -7 7 -11 10 -11 10 -2 0 9 6 10 18 4 9 -4 24 -8 32 -7 8 1 21 -4
29 -9 12 -9 13 -8 6 4 -7 12 -6 13 6 3 8 -7 32 -14 52 -16 21 -2 40 -7 44 -10
3 -4 15 -2 26 4 14 8 18 8 13 0 -7 -10 38 -17 87 -13 9 1 17 -2 17 -6 0 -5 6
-9 13 -9 6 -1 41 -2 77 -3 36 -2 68 -8 72 -13 4 -7 12 -6 22 2 9 8 16 9 16 4
0 -5 6 -10 13 -10 6 -1 37 -2 67 -4 30 -1 58 -7 62 -13 5 -7 8 -6 8 3 0 11 3
11 17 0 15 -12 16 -12 8 1 -7 12 -6 13 6 5 8 -6 33 -11 56 -10 24 0 43 -4 43
-10 0 -5 4 -5 10 1 7 7 28 8 54 4 24 -4 54 -5 66 -3 13 2 19 -1 14 -8 -4 -8 0
-8 15 0 14 8 21 8 21 1 0 -5 5 -10 11 -10 5 0 8 4 5 8 -2 4 4 8 15 8 10 0 19
-3 19 -6 0 -3 122 -5 270 -5 175 0 270 3 270 10 0 5 4 4 9 -4 7 -12 13 -12 24
-3 7 7 16 9 19 7 3 -3 15 -8 28 -10 18 -3 20 -2 10 10 -11 13 -6 12 25 -1 32
-13 37 -13 32 -1 -4 11 0 13 14 10 11 -3 16 -10 12 -17 -4 -7 -2 -7 8 1 9 7
51 13 97 15 44 1 79 5 77 8 -2 4 2 7 10 7 8 0 12 -4 10 -8 -3 -4 3 -6 12 -4
10 2 18 4 18 5 0 3 62 9 126 13 31 2 60 6 65 9 5 3 28 4 52 4 23 -1 42 3 42 7
0 5 5 5 11 1 6 -3 15 0 20 7 7 12 9 12 9 0 0 -11 3 -11 17 0 15 12 16 12 8 -1
-7 -12 -6 -13 6 -3 8 6 24 10 34 9 11 -2 26 1 33 7 8 6 12 5 12 -4 0 -11 2
-11 9 -1 4 7 12 12 17 11 5 -1 11 -1 14 0 3 2 27 4 54 7 28 2 53 10 58 17 6 9
8 8 8 -3 0 -9 3 -11 8 -5 4 6 15 11 25 12 9 0 31 1 48 2 16 0 28 4 26 9 -3 4
11 8 31 9 55 2 82 7 82 14 0 4 15 5 33 4 17 -2 38 1 44 7 7 5 28 10 48 10 19
0 35 4 35 10 0 5 4 7 8 4 5 -3 21 1 36 9 14 8 24 10 21 5 -4 -6 -1 -10 4 -10
6 0 11 4 11 8 0 4 8 8 18 9 45 3 62 8 62 18 0 5 5 3 10 -5 7 -12 10 -12 10 -1
0 7 6 11 15 7 8 -3 15 -2 15 3 0 4 6 8 13 9 45 3 72 11 75 20 1 5 12 8 23 5
10 -3 25 0 32 6 8 6 17 8 20 4 4 -3 7 -2 7 4 0 6 9 9 20 6 11 -3 26 -1 33 5 7
6 24 13 37 15 14 2 33 7 42 11 9 4 21 5 26 2 6 -3 13 1 16 10 3 8 10 13 14 10
5 -3 21 1 36 9 18 10 24 10 19 2 -5 -9 -3 -9 9 0 8 7 18 10 21 6 4 -3 7 -2 7
4 0 5 6 10 13 11 37 3 53 8 65 20 8 7 18 9 24 6 6 -4 13 -1 17 5 4 6 22 13 39
14 18 1 32 7 32 13 0 7 10 9 25 6 15 -2 25 0 25 7 0 7 6 11 13 10 12 -2 75 22
111 42 11 7 16 7 12 0 -4 -5 7 -3 24 5 17 9 28 19 26 23 -3 4 9 6 25 5 18 -1
32 3 36 11 2 8 11 11 18 9 7 -3 16 -1 20 5 3 6 15 11 26 11 10 0 19 4 19 8 0
5 6 9 13 9 6 0 32 9 56 21 24 12 48 19 52 16 5 -3 9 -1 9 4 0 4 26 19 58 32
31 13 60 28 63 33 3 5 9 8 13 7 13 -4 66 22 66 32 0 5 4 7 9 4 10 -6 91 33
103 49 4 6 8 7 8 2 0 -4 11 0 25 9 13 8 28 13 34 10 5 -3 11 1 15 9 3 8 12 15
21 15 8 0 15 5 15 11 0 6 6 9 14 6 8 -3 17 1 20 10 4 8 13 13 21 9 8 -3 18 1
22 8 7 11 43 29 52 26 2 -1 7 2 10 7 12 17 64 46 56 32 -3 -8 -1 -7 7 2 7 9
23 19 36 23 12 4 22 12 22 17 0 6 5 7 10 4 6 -3 10 -2 10 3 0 8 36 23 43 19 1
-1 13 8 27 21 13 12 30 22 37 22 7 0 13 5 13 11 0 5 4 8 9 5 5 -3 11 1 15 9 3
8 15 15 26 15 11 0 20 5 20 11 0 5 5 7 10 4 6 -3 10 -2 10 4 0 6 16 18 36 27
20 9 38 23 41 31 3 7 9 11 13 8 5 -3 15 1 23 9 8 8 17 12 21 9 3 -4 6 1 6 11
0 10 5 14 12 10 6 -4 17 1 25 11 7 11 13 16 13 12 0 -4 9 1 20 11 12 9 23 16
26 14 3 -2 14 7 25 19 10 12 19 18 19 14 0 -4 8 1 18 11 9 10 24 20 32 22 8 2
23 12 33 23 10 11 22 17 28 14 5 -4 9 0 9 7 0 7 14 19 30 26 17 8 28 18 24 23
-3 5 4 9 15 9 12 0 21 4 21 8 0 4 14 16 31 26 16 10 42 30 57 44 15 15 31 28
36 29 4 0 20 12 36 26 15 14 31 23 34 20 3 -4 6 -1 6 5 0 6 9 14 20 17 11 4
18 11 15 16 -4 5 0 9 8 9 7 0 23 10 34 23 11 12 30 29 43 37 12 8 33 25 46 38
13 13 24 20 24 17 0 -3 17 11 39 32 21 21 49 45 61 53 37 25 70 58 70 70 0 7
6 10 13 7 6 -2 20 8 29 22 10 14 18 23 18 19 0 -3 19 12 42 35 23 23 45 41 49
40 3 -1 12 9 19 22 7 14 20 25 27 25 8 0 12 3 10 8 -3 4 1 13 9 20 8 7 14 10
14 7 0 -3 9 4 20 15 11 11 20 25 20 30 0 6 3 9 8 8 9 -4 58 45 54 55 -1 4 2 7
7 7 13 0 71 59 71 71 0 6 4 8 8 5 5 -3 15 6 22 19 7 13 17 22 22 19 4 -3 8 -1
8 3 0 13 63 78 73 75 4 -1 6 2 2 8 -3 5 -1 10 4 10 6 0 11 7 11 16 0 8 5 12
10 9 6 -3 10 -2 10 3 0 5 18 28 41 50 22 23 38 42 35 42 -3 0 15 21 39 47 25
26 45 51 45 55 0 4 7 8 16 8 8 0 12 5 9 10 -3 6 -1 10 5 10 6 0 8 5 5 10 -3 6
1 10 9 10 9 0 16 5 16 10 0 18 34 48 70 64 19 8 31 15 25 16 -5 0 -5 4 2 8 10
6 18 32 22 75 1 4 8 7 17 7 8 0 12 4 9 10 -3 5 5 19 19 31 14 12 23 26 20 31
-3 4 2 8 11 8 9 0 14 4 11 8 -3 5 3 18 12 28 10 10 29 35 42 54 13 19 32 44
42 54 10 11 18 23 18 26 0 6 11 21 49 66 5 7 7 15 4 18 -4 3 -1 6 5 6 7 0 12
7 12 16 0 8 5 12 10 9 6 -3 10 1 10 9 0 9 5 16 10 16 6 0 10 5 10 10 0 12 40
71 55 82 6 4 6 8 2 8 -4 0 1 10 12 22 11 11 18 24 16 28 -3 5 2 11 11 14 9 4
14 13 10 21 -3 8 -2 14 2 12 4 -1 8 2 9 7 0 5 8 13 17 18 9 5 14 13 11 19 -4
5 -1 9 4 9 6 0 11 7 11 15 0 8 4 15 9 15 5 0 14 14 21 30 7 17 17 30 22 30 5
0 6 5 3 10 -3 6 1 13 9 16 9 3 14 9 11 14 -2 4 7 22 20 40 14 19 25 40 25 47
0 7 4 13 10 13 5 0 12 11 16 25 3 14 10 25 16 25 5 0 6 5 3 10 -3 6 -1 10 6
10 7 0 10 3 6 6 -3 3 3 16 14 27 11 12 17 27 15 34 -3 7 -1 13 4 13 8 0 44 67
51 95 1 6 9 15 18 22 9 7 12 13 7 13 -5 0 -1 9 9 20 10 11 14 20 9 20 -5 0 0
7 10 15 11 8 16 15 12 15 -5 0 -1 11 8 25 9 14 14 25 11 25 -4 0 1 7 9 16 9 8
14 19 11 24 -3 4 2 13 10 20 8 7 15 21 15 31 0 11 5 19 10 19 6 0 10 9 10 19
0 11 4 21 9 23 5 2 11 12 13 23 1 11 9 26 16 33 7 8 10 18 7 23 -4 5 -1 9 4 9
6 0 11 9 11 20 0 11 5 20 11 20 5 0 7 5 4 10 -3 6 -2 10 2 10 5 0 9 9 10 21 1
12 10 28 20 36 10 8 11 11 3 7 -13 -7 -13 -5 -1 9 7 9 10 17 5 17 -5 0 -2 5 8
10 10 7 14 17 10 32 -3 14 -2 19 6 14 10 -6 16 11 11 27 0 1 11 26 26 55 14
28 24 56 21 61 -3 5 0 14 8 20 7 6 16 25 20 42 4 21 10 28 18 23 10 -5 10 -4
1 6 -9 10 -8 16 3 27 8 8 14 25 14 38 0 13 5 27 10 30 6 4 8 11 5 16 -4 5 -1
9 5 9 6 0 8 5 5 10 -3 6 -2 10 4 10 6 0 8 6 5 14 -3 7 2 21 11 30 12 12 13 16
3 16 -10 0 -9 3 2 10 8 5 12 10 7 10 -4 0 0 11 9 25 9 14 13 25 9 25 -4 0 -2
6 4 13 6 8 8 17 4 20 -3 4 0 13 7 22 7 8 9 15 5 15 -4 0 -2 7 5 15 6 8 13 24
16 37 13 76 17 87 28 81 6 -3 8 -3 4 1 -3 4 1 31 9 59 9 29 16 58 16 65 0 6 3
12 7 12 4 0 7 8 7 18 0 36 3 43 16 36 9 -6 9 -5 0 7 -10 12 -10 18 -1 27 7 7
8 12 4 12 -5 0 -3 7 4 15 10 12 10 15 -1 15 -10 1 -9 4 3 10 10 6 15 19 13 30
-2 11 -1 20 3 20 4 0 9 10 10 23 5 37 8 51 16 70 5 9 6 24 2 32 -3 8 -1 15 4
15 6 0 9 3 9 8 -1 4 0 9 1 12 1 3 4 18 6 34 3 16 10 38 16 49 8 15 7 18 -4 12
-10 -6 -10 -5 -1 5 6 7 9 19 6 26 -3 8 0 14 6 14 6 0 8 7 5 15 -4 9 0 15 7 15
11 0 11 3 -1 10 -8 5 -10 10 -4 10 6 0 11 6 11 13 1 6 4 30 8 52 4 22 7 50 8
63 0 12 4 22 8 22 4 0 5 10 1 22 -4 16 -2 19 9 13 12 -8 12 -6 0 8 -7 9 -9 17
-4 17 6 0 9 10 8 22 -1 13 5 34 13 47 10 17 10 21 1 16 -9 -6 -10 -3 -4 11 4
10 8 31 9 47 0 15 4 27 9 27 5 0 4 6 -2 13 -6 8 -7 17 -3 21 4 4 8 12 8 17 1
5 2 10 4 12 7 9 5 74 -3 85 -7 9 -6 11 5 7 11 -4 14 4 15 40 1 25 2 46 3 48 3
3 9 57 13 123 3 34 8 67 12 74 5 9 4 11 -3 6 -8 -5 -10 -2 -6 8 3 9 9 14 14
11 4 -2 4 14 0 35 -4 22 -4 42 0 45 4 2 6 27 5 55 -1 28 2 53 7 56 6 4 5 10
-3 14 -10 7 -10 12 0 23 8 10 8 17 2 21 -14 9 -2 37 13 29 6 -3 6 -1 -1 8 -7
7 -13 17 -13 22 0 4 6 5 13 1 7 -5 6 0 -3 11 -17 21 -17 24 2 36 8 6 9 9 2 9
-8 0 -9 11 -4 35 4 20 4 38 -1 41 -5 3 -5 13 -1 22 10 21 8 474 -2 490 -4 7
-1 12 6 12 9 0 9 3 -2 10 -12 8 -12 10 -1 10 9 0 10 4 4 13 -5 6 -8 24 -7 40
2 16 -2 27 -9 27 -8 0 -8 3 -2 8 13 9 15 42 3 42 -6 0 -5 6 2 15 7 8 8 15 3
15 -5 0 -9 34 -8 76 0 41 -3 78 -7 80 -5 3 -6 9 -3 14 3 5 1 11 -5 15 -6 4 -7
12 -3 18 9 15 12 47 4 47 -3 0 -7 17 -8 38 -4 82 -8 122 -13 122 -3 0 -5 26
-5 58 0 31 -4 63 -9 70 -4 6 -5 12 -1 12 4 0 1 8 -6 17 -12 14 -12 15 -1 9 11
-7 12 -4 3 12 -6 11 -8 28 -5 36 3 9 1 16 -5 16 -6 0 -11 5 -11 11 0 5 5 7 11
3 7 -4 7 1 -1 16 -6 12 -10 31 -7 41 3 10 1 19 -4 19 -4 0 -6 6 -3 14 3 8 1
17 -5 20 -6 4 -8 12 -5 20 3 7 0 25 -5 39 -8 20 -7 27 2 27 7 0 8 3 2 8 -12 8
-18 28 -18 60 -1 12 -4 22 -7 22 -3 0 -7 11 -8 25 -1 14 -2 33 -3 43 -1 9 -7
23 -13 31 -9 12 -8 13 4 6 12 -7 13 -6 3 6 -7 8 -13 32 -15 52 -1 20 -5 37 -8
37 -7 0 -9 7 -12 60 -2 19 -7 38 -11 41 -4 3 -9 22 -10 42 -1 21 -5 37 -9 37
-5 0 -8 10 -8 23 0 13 -6 29 -12 36 -11 11 -10 12 2 6 13 -8 13 -6 1 8 -7 9
-10 24 -7 33 5 12 2 15 -11 10 -14 -6 -15 -5 -6 5 8 8 9 18 2 30 -5 10 -10 29
-11 43 -1 15 -7 26 -12 26 -5 0 -7 3 -3 6 3 3 2 17 -3 30 -6 14 -12 37 -15 52
-2 15 -9 28 -15 30 -5 2 -8 8 -4 13 3 5 2 14 -2 21 -7 11 -13 41 -16 76 -1 6
-6 12 -11 12 -5 0 -7 7 -3 15 3 8 0 18 -7 22 -7 5 -12 22 -13 38 0 17 -6 29
-12 28 -6 -2 -9 5 -7 15 1 10 -5 34 -15 55 -10 20 -13 34 -7 31 8 -5 8 -2 0 7
-7 7 -13 21 -13 31 0 10 -4 18 -8 18 -4 0 -9 10 -9 22 -1 13 -7 24 -12 26 -5
2 -8 9 -5 16 3 8 -1 20 -8 27 -7 8 -13 19 -14 24 -2 27 -28 95 -36 95 -5 0 -7
4 -4 9 3 5 -1 21 -9 37 -7 15 -12 31 -9 36 3 4 1 8 -5 8 -6 0 -16 18 -22 40
-7 22 -16 40 -20 40 -5 0 -6 6 -3 14 3 8 1 17 -5 21 -6 3 -11 15 -11 25 0 10
-4 20 -9 22 -5 2 -11 12 -13 23 -1 11 -5 22 -8 25 -9 9 -51 105 -50 114 1 5
-2 12 -7 15 -13 10 -33 49 -33 66 0 8 -5 15 -11 15 -6 0 -8 7 -5 15 3 9 -1 18
-9 21 -8 4 -13 10 -10 14 3 5 -1 15 -9 23 -8 8 -12 17 -9 21 4 3 1 6 -5 6 -7
0 -12 3 -11 8 2 15 -14 52 -23 52 -5 0 -6 5 -3 10 3 6 1 10 -5 10 -6 0 -9 4
-6 9 3 5 -1 14 -9 21 -8 7 -12 16 -9 21 3 5 0 9 -6 9 -6 0 -8 5 -5 10 3 6 2
10 -3 10 -9 0 -25 37 -23 53 1 4 -3 7 -7 7 -10 0 -37 50 -34 63 1 4 -3 7 -9 7
-5 0 -7 5 -4 10 3 6 -1 13 -9 16 -9 3 -16 15 -16 25 0 10 -4 19 -10 19 -5 0
-10 7 -10 15 0 8 -5 15 -10 15 -6 0 -9 3 -9 8 3 20 -2 32 -13 26 -7 -5 -8 -3
-3 5 4 7 -1 22 -13 34 -11 12 -22 29 -24 37 -3 14 -7 21 -36 55 -7 8 -9 15 -5
15 4 1 -1 8 -13 18 -11 9 -20 19 -21 22 -1 19 -16 50 -22 50 -5 0 -14 14 -21
30 -7 17 -16 30 -21 30 -5 0 -9 7 -9 15 0 8 -4 15 -10 15 -5 0 -10 9 -10 21 0
11 -4 17 -10 14 -5 -3 -10 1 -10 9 0 9 -5 16 -11 16 -5 0 -7 5 -4 10 3 6 -1
13 -9 16 -9 3 -13 10 -10 15 3 5 0 9 -5 9 -6 0 -11 6 -11 13 0 8 -11 24 -25
37 -14 13 -25 29 -25 37 0 7 -4 13 -9 13 -5 0 -14 13 -21 30 -7 16 -16 28 -20
25 -4 -2 -13 8 -21 23 -8 15 -20 34 -27 42 -7 8 -11 18 -10 22 2 4 -7 15 -20
23 -12 9 -20 20 -17 25 3 5 -4 11 -15 15 -11 4 -18 11 -15 16 4 5 -1 12 -9 15
-9 3 -16 12 -16 20 0 7 -6 17 -13 21 -6 4 -25 27 -41 51 -16 23 -33 42 -37 42
-5 0 -9 7 -9 16 0 8 -5 12 -10 9 -5 -3 -10 0 -10 8 0 8 -9 22 -20 32 -11 10
-20 24 -20 32 0 8 -4 12 -9 8 -6 -3 -15 4 -21 16 -12 21 -30 43 -97 117 -18
20 -33 40 -33 44 0 4 -7 8 -16 8 -8 0 -13 4 -10 9 4 5 -8 21 -25 35 -17 14
-28 26 -25 26 3 0 -2 8 -11 18 -10 11 -21 17 -25 15 -5 -2 -8 3 -8 12 0 8 -7
18 -15 21 -8 3 -17 14 -20 25 -4 11 -9 18 -13 16 -7 -3 -62 50 -72 69 -3 5 -8
8 -12 7 -5 -2 -8 2 -8 8 0 13 -38 49 -52 49 -4 0 -7 3 -6 8 2 4 -19 28 -45 54
-26 26 -47 45 -47 42 0 -2 -6 1 -14 8 -8 7 -12 17 -9 21 3 5 -4 11 -16 14 -11
3 -19 9 -16 13 3 5 -4 11 -15 15 -11 3 -20 14 -20 22 0 9 -3 14 -6 11 -3 -4
-21 9 -41 28 -19 19 -39 34 -44 34 -5 0 -9 7 -9 15 0 8 -4 15 -10 15 -5 0 -25
16 -45 35 -19 20 -35 33 -35 29 0 -3 -9 4 -20 17 -10 13 -19 21 -20 17 0 -4
-16 10 -36 30 -20 20 -40 36 -45 35 -5 -2 -9 5 -9 14 0 9 -3 13 -7 10 -3 -4
-16 5 -29 18 -13 14 -28 25 -34 25 -5 0 -10 5 -10 11 0 5 -5 7 -12 3 -7 -4 -8
-3 -4 5 4 6 0 14 -11 18 -10 4 -27 14 -38 24 -11 10 -36 32 -55 48 -19 17 -38
31 -42 31 -8 0 -15 6 -72 58 -14 12 -30 22 -36 22 -5 0 -10 5 -10 10 0 6 -9
10 -21 10 -11 0 -18 4 -15 9 4 5 -7 15 -23 22 -16 7 -27 17 -25 21 3 4 -1 8
-8 8 -7 0 -29 14 -48 30 -19 16 -39 30 -43 30 -5 0 -15 7 -24 15 -8 8 -19 12
-25 9 -6 -4 -8 -3 -5 3 4 6 -9 19 -28 29 -19 10 -35 23 -35 28 0 5 -3 7 -6 3
-4 -3 -13 1 -21 9 -8 8 -19 11 -25 8 -6 -4 -8 -2 -5 3 4 6 -9 18 -28 27 -19 9
-40 22 -47 30 -14 13 -79 53 -135 83 -18 9 -33 21 -33 25 0 5 -4 6 -10 3 -5
-3 -10 -1 -10 5 0 7 -7 10 -15 6 -9 -3 -15 0 -15 10 0 8 -4 12 -10 9 -5 -3
-10 -3 -10 2 0 4 -15 14 -32 22 -18 8 -35 17 -38 20 -9 10 -64 41 -102 57 -21
9 -38 20 -38 26 0 5 -4 7 -9 3 -5 -3 -15 1 -23 8 -15 15 -49 31 -60 29 -5 -1
-8 3 -8 9 0 5 -4 7 -10 4 -5 -3 -10 -2 -10 4 0 10 -38 27 -52 23 -5 -1 -8 3
-8 9 0 5 -4 8 -9 5 -5 -4 -11 -3 -13 1 -6 16 -68 44 -80 37 -7 -4 -8 -3 -4 4
5 8 0 12 -12 12 -11 0 -25 7 -32 15 -7 9 -19 14 -26 11 -7 -3 -15 2 -18 10 -3
9 -10 13 -15 9 -5 -3 -12 -1 -16 5 -3 5 -15 10 -26 10 -11 0 -17 5 -14 10 4 6
-5 10 -20 10 -17 0 -24 4 -19 12 4 6 3 8 -3 5 -5 -3 -26 2 -45 13 -20 10 -39
16 -42 13 -3 -4 -6 -1 -6 6 0 7 -5 9 -10 6 -6 -3 -13 0 -16 8 -3 8 -16 13 -29
12 -13 -2 -26 3 -29 12 -3 8 -10 12 -15 8 -5 -3 -13 0 -16 6 -4 5 -13 8 -20 5
-8 -3 -15 -1 -17 4 -2 4 -12 10 -23 12 -11 1 -25 10 -32 18 -6 8 -15 12 -18 8
-4 -4 -20 -1 -35 7 -15 8 -30 11 -34 8 -3 -4 -6 -1 -6 5 0 7 -9 12 -20 12 -11
0 -20 5 -20 12 0 6 -3 8 -7 5 -3 -4 -17 0 -31 9 -17 11 -22 12 -16 3 6 -11 5
-12 -7 -2 -8 6 -23 13 -34 15 -11 1 -23 7 -26 12 -4 5 -18 9 -33 9 -14 0 -23
3 -20 8 3 5 -6 9 -20 9 -14 0 -28 5 -31 10 -4 6 -15 10 -24 8 -10 -2 -24 2
-32 8 -8 6 -25 15 -38 19 -18 6 -22 4 -16 -6 5 -8 -1 -5 -13 5 -12 11 -22 16
-22 12 0 -4 -10 -1 -22 6 -13 7 -27 11 -32 10 -4 -2 -14 2 -22 9 -8 6 -20 9
-28 6 -8 -3 -16 -2 -18 3 -2 6 -15 11 -30 12 -16 1 -28 6 -28 11 0 5 -6 7 -12
4 -7 -2 -21 0 -31 5 -16 8 -38 14 -83 22 -7 1 -19 8 -28 15 -12 10 -16 11 -16
1 0 -9 -4 -9 -17 1 -9 8 -18 13 -20 12 -1 -2 -4 -3 -5 -2 -11 3 -47 9 -65 11
-13 1 -23 6 -23 10 0 4 -8 7 -17 7 -41 1 -52 5 -57 18 -4 10 -11 11 -24 4 -13
-7 -27 -6 -46 4 -18 10 -25 10 -20 2 5 -9 3 -9 -7 1 -7 6 -28 12 -46 12 -18 0
-33 4 -33 8 0 4 -10 9 -22 9 -71 4 -87 7 -84 12 2 3 -12 7 -32 9 -46 3 -64 6
-77 13 -5 3 -22 5 -37 4 -16 -1 -28 2 -28 7 0 5 -4 6 -10 3 -5 -3 -15 -3 -22
1 -12 7 -67 15 -120 16 -15 1 -26 4 -23 7 2 4 -6 7 -18 7 -70 1 -108 5 -104
12 6 9 -71 7 -80 -2 -3 -3 -15 1 -25 11 -12 10 -18 12 -18 4 0 -7 -5 -9 -12
-5 -7 4 -24 9 -38 10 -46 5 -135 14 -162 18 -16 2 -28 -2 -28 -8 0 -7 -3 -7
-8 1 -4 6 -23 10 -42 9 -19 -2 -43 1 -52 6 -12 6 -18 5 -18 -2 0 -6 -5 -8 -12
-3 -19 11 -37 12 -44 2 -3 -6 -11 -5 -20 2 -8 6 -14 8 -14 5 0 -4 -9 -2 -20 4
-11 6 -20 7 -20 2 0 -5 -7 -9 -15 -9 -8 0 -15 5 -15 11 0 6 -5 4 -10 -4 -5 -8
-10 -10 -10 -5 0 6 -104 10 -292 10 -242 0 -295 -2 -304 -14 -9 -12 -13 -11
-22 5 -8 13 -11 15 -12 5 0 -11 -3 -12 -11 -4 -7 7 -21 8 -39 3 -18 -5 -32 -4
-40 3 -10 9 -11 9 -6 0z"/>
</g>
</svg>
